<mxfile host="app.diagrams.net" agent="Mozilla/5.0 (Windows NT 10.0; Win64; x64) AppleWebKit/537.36 (KHTML, like Gecko) Chrome/139.0.0.0 Safari/537.36 Edg/139.0.0.0" version="27.1.4">
  <diagram name="第 1 页" id="vpEmNmz1VxD7TS162uRm">
    <mxGraphModel dx="1331" dy="750" grid="1" gridSize="10" guides="1" tooltips="1" connect="1" arrows="1" fold="1" page="1" pageScale="1" pageWidth="1200" pageHeight="800" math="0" shadow="0">
      <root>
        <mxCell id="0" />
        <mxCell id="1" parent="0" />
        <mxCell id="main_bg" value="" style="rounded=1;whiteSpace=wrap;html=1;fillColor=#f8f9fa;strokeColor=#e9ecef;strokeWidth=2;shadow=1;" parent="1" vertex="1">
          <mxGeometry x="180" y="170" width="660" height="230" as="geometry" />
        </mxCell>
        <mxCell id="graph_bg" value="" style="rounded=1;whiteSpace=wrap;html=1;fillColor=#ffffff;strokeColor=#3498db;strokeWidth=2;shadow=1;" parent="1" vertex="1">
          <mxGeometry x="190" y="200" width="180" height="190" as="geometry" />
        </mxCell>
        <mxCell id="graph_title" value="Dependency Graph" style="text;html=1;strokeColor=none;fillColor=none;align=center;verticalAlign=middle;whiteSpace=wrap;rounded=0;fontSize=16;fontStyle=1;fontColor=#3498db;" parent="1" vertex="1">
          <mxGeometry x="200" y="175" width="150" height="25" as="geometry" />
        </mxCell>
        <mxCell id="node1" value="" style="ellipse;whiteSpace=wrap;html=1;aspect=fixed;fontSize=11;fontStyle=1;fillColor=#e8f4fd;strokeColor=#3498db;strokeWidth=2;shadow=1;" parent="1" vertex="1">
          <mxGeometry x="230" y="210" width="40" height="40" as="geometry" />
        </mxCell>
        <mxCell id="node2" value="" style="ellipse;whiteSpace=wrap;html=1;aspect=fixed;fontSize=11;fontStyle=1;fillColor=#fff3e0;strokeColor=#ff9800;strokeWidth=2;shadow=1;" parent="1" vertex="1">
          <mxGeometry x="215" y="280" width="40" height="40" as="geometry" />
        </mxCell>
        <mxCell id="node3" value="" style="ellipse;whiteSpace=wrap;html=1;aspect=fixed;fontSize=11;fontStyle=1;fillColor=#fff3e0;strokeColor=#ff9800;strokeWidth=2;shadow=1;" parent="1" vertex="1">
          <mxGeometry x="280" y="240" width="40" height="40" as="geometry" />
        </mxCell>
        <mxCell id="node4" value="" style="ellipse;whiteSpace=wrap;html=1;aspect=fixed;fontSize=11;fontStyle=1;fillColor=#fff3e0;strokeColor=#ff9800;strokeWidth=2;shadow=1;" parent="1" vertex="1">
          <mxGeometry x="270" y="325" width="40" height="40" as="geometry" />
        </mxCell>
        <mxCell id="node5" value="" style="ellipse;whiteSpace=wrap;html=1;aspect=fixed;fontSize=11;fontStyle=1;fillColor=#e8f5e8;strokeColor=#4caf50;strokeWidth=2;shadow=1;" parent="1" vertex="1">
          <mxGeometry x="325" y="310" width="40" height="40" as="geometry" />
        </mxCell>
        <mxCell id="node6" value="" style="ellipse;whiteSpace=wrap;html=1;aspect=fixed;fontSize=11;fontStyle=1;fillColor=#fce4ec;strokeColor=#e91e63;strokeWidth=2;shadow=1;" parent="1" vertex="1">
          <mxGeometry x="220" y="340" width="40" height="40" as="geometry" />
        </mxCell>
        <mxCell id="edge1" value="" style="endArrow=classic;html=1;rounded=1;strokeWidth=2;strokeColor=#34495e;curved=1;" parent="1" source="node1" target="node2" edge="1">
          <mxGeometry width="50" height="50" relative="1" as="geometry">
            <mxPoint x="340" y="350" as="sourcePoint" />
            <mxPoint x="390" y="300" as="targetPoint" />
          </mxGeometry>
        </mxCell>
        <mxCell id="edge2" value="" style="endArrow=classic;html=1;rounded=1;strokeWidth=2;strokeColor=#34495e;curved=1;" parent="1" source="node1" target="node3" edge="1">
          <mxGeometry width="50" height="50" relative="1" as="geometry">
            <mxPoint x="340" y="350" as="sourcePoint" />
            <mxPoint x="390" y="300" as="targetPoint" />
          </mxGeometry>
        </mxCell>
        <mxCell id="edge3" value="" style="endArrow=classic;html=1;rounded=1;strokeWidth=2;strokeColor=#34495e;curved=1;" parent="1" source="node2" target="node6" edge="1">
          <mxGeometry width="50" height="50" relative="1" as="geometry">
            <mxPoint x="340" y="350" as="sourcePoint" />
            <mxPoint x="390" y="300" as="targetPoint" />
          </mxGeometry>
        </mxCell>
        <mxCell id="edge4" value="" style="endArrow=classic;html=1;rounded=1;strokeWidth=2;strokeColor=#34495e;curved=1;" parent="1" source="node3" target="node4" edge="1">
          <mxGeometry width="50" height="50" relative="1" as="geometry">
            <mxPoint x="340" y="350" as="sourcePoint" />
            <mxPoint x="390" y="300" as="targetPoint" />
          </mxGeometry>
        </mxCell>
        <mxCell id="edge5" value="" style="endArrow=classic;html=1;rounded=1;strokeWidth=2;strokeColor=#34495e;curved=1;" parent="1" source="node3" target="node5" edge="1">
          <mxGeometry width="50" height="50" relative="1" as="geometry">
            <mxPoint x="340" y="350" as="sourcePoint" />
            <mxPoint x="390" y="300" as="targetPoint" />
          </mxGeometry>
        </mxCell>
        <mxCell id="gnn_predictor" value="&lt;font style=&quot;color: rgb(0, 0, 0);&quot;&gt;GNN Predictor&lt;/font&gt;" style="rounded=1;whiteSpace=wrap;html=1;fillColor=#CCFFCC;strokeColor=#5f3dc4;fontSize=16;fontStyle=1;fontColor=#ffffff;shadow=1;" parent="1" vertex="1">
          <mxGeometry x="430" y="250" width="140" height="80" as="geometry" />
        </mxCell>
        <mxCell id="main_arrow" value="" style="shape=singleArrow;whiteSpace=wrap;html=1;fillColor=#74b9ff;strokeColor=#0984e3;shadow=1;" parent="1" vertex="1">
          <mxGeometry x="380" y="270" width="40" height="40" as="geometry" />
        </mxCell>
        <mxCell id="prediction_label" value="&lt;font style=&quot;color: rgb(0, 0, 0);&quot;&gt;Performance&lt;br&gt;Prediction&lt;/font&gt;" style="text;html=1;strokeColor=none;fillColor=none;align=center;verticalAlign=middle;whiteSpace=wrap;rounded=0;fontSize=12;fontStyle=1;fontColor=#6c5ce7;" parent="1" vertex="1">
          <mxGeometry x="440" y="210" width="120" height="40" as="geometry" />
        </mxCell>
        <mxCell id="scheduling_bg" value="" style="rounded=1;whiteSpace=wrap;html=1;fillColor=#ffffff;strokeColor=#e17055;strokeWidth=2;shadow=1;" parent="1" vertex="1">
          <mxGeometry x="640" y="205" width="180" height="180" as="geometry" />
        </mxCell>
        <mxCell id="scheduling_title" value="Scheduling Decision" style="text;html=1;strokeColor=none;fillColor=none;align=center;verticalAlign=middle;whiteSpace=wrap;rounded=0;fontSize=16;fontStyle=1;fontColor=#e17055;" parent="1" vertex="1">
          <mxGeometry x="660" y="175" width="140" height="25" as="geometry" />
        </mxCell>
        <mxCell id="node1_bg" value="" style="rounded=1;whiteSpace=wrap;html=1;fillColor=#dff9fb;strokeColor=#00b894;strokeWidth=2;" parent="1" vertex="1">
          <mxGeometry x="660" y="225" width="140" height="60" as="geometry" />
        </mxCell>
        <mxCell id="node1_title" value="Node 1" style="text;html=1;strokeColor=none;fillColor=none;align=center;verticalAlign=middle;whiteSpace=wrap;rounded=0;fontSize=14;fontStyle=1;fontColor=#00b894;" parent="1" vertex="1">
          <mxGeometry x="680" y="235" width="100" height="20" as="geometry" />
        </mxCell>
        <mxCell id="pod1" value="Pod A" style="rounded=1;whiteSpace=wrap;html=1;fillColor=#CCFFCC;strokeColor=#00b894;fontSize=12;fontStyle=1;fontColor=#2d3436;" parent="1" vertex="1">
          <mxGeometry x="670" y="255" width="60" height="25" as="geometry" />
        </mxCell>
        <mxCell id="pod2" value="Pod B" style="rounded=1;whiteSpace=wrap;html=1;fillColor=#CCFFCC;strokeColor=#00b894;fontSize=12;fontStyle=1;fontColor=#2d3436;" parent="1" vertex="1">
          <mxGeometry x="735" y="255" width="60" height="25" as="geometry" />
        </mxCell>
        <mxCell id="node2_bg" value="" style="rounded=1;whiteSpace=wrap;html=1;fillColor=#dff9fb;strokeColor=#00b894;strokeWidth=2;" parent="1" vertex="1">
          <mxGeometry x="660" y="305" width="140" height="60" as="geometry" />
        </mxCell>
        <mxCell id="node2_title" value="Node 2" style="text;html=1;strokeColor=none;fillColor=none;align=center;verticalAlign=middle;whiteSpace=wrap;rounded=0;fontSize=14;fontStyle=1;fontColor=#00b894;" parent="1" vertex="1">
          <mxGeometry x="680" y="315" width="100" height="20" as="geometry" />
        </mxCell>
        <mxCell id="pod3" value="Pod C" style="rounded=1;whiteSpace=wrap;html=1;fillColor=#CCFFCC;strokeColor=#00b894;fontSize=12;fontStyle=1;fontColor=#2d3436;" parent="1" vertex="1">
          <mxGeometry x="670" y="335" width="60" height="25" as="geometry" />
        </mxCell>
        <mxCell id="pod4" value="Pod D" style="rounded=1;whiteSpace=wrap;html=1;fillColor=#CCFFCC;strokeColor=#00b894;fontSize=12;fontStyle=1;fontColor=#2d3436;" parent="1" vertex="1">
          <mxGeometry x="735" y="335" width="60" height="25" as="geometry" />
        </mxCell>
        <mxCell id="scheduling_arrow" value="" style="endArrow=classic;html=1;rounded=0;strokeWidth=3;strokeColor=#e17055;curved=1;" parent="1" source="gnn_predictor" target="scheduling_bg" edge="1">
          <mxGeometry width="50" height="50" relative="1" as="geometry">
            <mxPoint x="620" y="290" as="sourcePoint" />
            <mxPoint x="670" y="240" as="targetPoint" />
          </mxGeometry>
        </mxCell>
        <mxCell id="scheduling_label" value="&lt;font style=&quot;color: rgb(0, 0, 0);&quot;&gt;Optimal&lt;br&gt;Scheduling&lt;/font&gt;" style="text;html=1;strokeColor=none;fillColor=none;align=center;verticalAlign=middle;whiteSpace=wrap;rounded=0;fontSize=12;fontStyle=1;fontColor=#e17055;" parent="1" vertex="1">
          <mxGeometry x="570" y="250" width="80" height="40" as="geometry" />
        </mxCell>
        <mxCell id="flow_label1" value="&lt;font style=&quot;color: rgb(0, 0, 0); font-size: 12px;&quot;&gt;&lt;b&gt;Graph Analysis&lt;/b&gt;&lt;/font&gt;" style="text;html=1;strokeColor=none;fillColor=none;align=center;verticalAlign=middle;whiteSpace=wrap;rounded=0;fontSize=10;fontStyle=2;fontColor=#74b9ff;" parent="1" vertex="1">
          <mxGeometry x="360" y="250" width="80" height="20" as="geometry" />
        </mxCell>
        <mxCell id="flow_label2" value="&lt;font style=&quot;color: rgb(0, 0, 0); font-size: 12px;&quot;&gt;&lt;b&gt;Resource Allocation&lt;/b&gt;&lt;/font&gt;" style="text;html=1;strokeColor=none;fillColor=none;align=center;verticalAlign=middle;whiteSpace=wrap;rounded=0;fontSize=10;fontStyle=2;fontColor=#e17055;" parent="1" vertex="1">
          <mxGeometry x="566" y="320" width="80" height="20" as="geometry" />
        </mxCell>
      </root>
    </mxGraphModel>
  </diagram>
</mxfile>
